<?xml version="1.0" encoding="UTF-8" standalone="no"?>
<svg
   xmlns:dc="http://purl.org/dc/elements/1.1/"
   xmlns:cc="http://creativecommons.org/ns#"
   xmlns:rdf="http://www.w3.org/1999/02/22-rdf-syntax-ns#"
   xmlns:svg="http://www.w3.org/2000/svg"
   xmlns="http://www.w3.org/2000/svg"
   xmlns:sodipodi="http://sodipodi.sourceforge.net/DTD/sodipodi-0.dtd"
   xmlns:inkscape="http://www.inkscape.org/namespaces/inkscape"
   fill="#000000"
   height="24"
   viewBox="0 0 24 24"
   width="24"
   id="svg3071"
   version="1.1"
   inkscape:version="0.48.4 r9939"
   sodipodi:docname="ic_word_6.svg">
  <metadata
     id="metadata3081">
    <rdf:RDF>
      <cc:Work
         rdf:about="">
        <dc:format>image/svg+xml</dc:format>
        <dc:type
           rdf:resource="http://purl.org/dc/dcmitype/StillImage" />
        <dc:title />
      </cc:Work>
    </rdf:RDF>
  </metadata>
  <defs
     id="defs3079" />
  <sodipodi:namedview
     pagecolor="#ffffff"
     bordercolor="#666666"
     borderopacity="1"
     objecttolerance="10"
     gridtolerance="10"
     guidetolerance="10"
     inkscape:pageopacity="0"
     inkscape:pageshadow="2"
     inkscape:window-width="1920"
     inkscape:window-height="1022"
     id="namedview3077"
     showgrid="false"
     showguides="true"
     inkscape:guide-bbox="true"
     inkscape:snap-object-midpoints="true"
     inkscape:snap-center="true"
     inkscape:zoom="34.75"
     inkscape:cx="10.206192"
     inkscape:cy="10.09219"
     inkscape:window-x="0"
     inkscape:window-y="29"
     inkscape:window-maximized="1"
     inkscape:current-layer="svg3071">
    <sodipodi:guide
       orientation="1,0"
       position="12,13.007194"
       id="guide3083" />
    <sodipodi:guide
       orientation="0,1"
       position="14.618705,14.992806"
       id="guide3085" />
  </sodipodi:namedview>
  <path
     d="M0 0h24v24H0z"
     fill="none"
     id="path3073" />
  <path
     d="M 12 3 L 1 9 L 12 15 L 21 10.09375 L 21 17 L 23 17 L 23 9 L 12 3 z M 12.9375 6.125 L 13 6.125 L 13 6.78125 L 12.9375 6.78125 C 12.697914 6.781255 12.471351 6.7942759 12.28125 6.84375 C 12.093748 6.8932341 11.924477 6.9765674 11.78125 7.0625 C 11.638019 7.1484422 11.541665 7.2239629 11.4375 7.34375 C 11.335936 7.4609418 11.223957 7.6093792 11.15625 7.75 C 11.08854 7.8906289 11.036457 8.0338579 11 8.1875 C 10.96354 8.3411493 10.947915 8.4973992 10.9375 8.65625 C 11.005207 8.5755241 11.098957 8.5052116 11.1875 8.4375 C 11.27604 8.367191 11.367186 8.2994827 11.46875 8.25 C 11.572915 8.1979203 11.66406 8.1536495 11.78125 8.125 C 11.901039 8.0937537 12.026039 8.0937537 12.15625 8.09375 C 12.440101 8.0937537 12.700518 8.1406287 12.90625 8.25 C 13.111976 8.3567743 13.273434 8.51042 13.40625 8.6875 C 13.539059 8.8645863 13.624996 9.0572944 13.6875 9.28125 C 13.749996 9.5052106 13.812496 9.7369813 13.8125 9.96875 C 13.812496 10.234377 13.763017 10.484376 13.6875 10.71875 C 13.614579 10.953126 13.492184 11.135417 13.34375 11.3125 C 13.195309 11.486979 13.033851 11.648438 12.8125 11.75 C 12.593747 11.851562 12.32031 11.90625 12.03125 11.90625 C 11.825519 11.90625 11.640623 11.872396 11.46875 11.8125 C 11.299478 11.752604 11.135415 11.664063 11 11.5625 C 10.864582 11.458334 10.757811 11.328125 10.65625 11.1875 C 10.554687 11.046876 10.473958 10.911459 10.40625 10.75 C 10.341145 10.588543 10.283854 10.424481 10.25 10.25 C 10.216145 10.075523 10.187499 9.8932311 10.1875 9.71875 L 10.1875 9.375 C 10.187499 9.114586 10.218749 8.8541696 10.25 8.59375 C 10.283854 8.3307327 10.328124 8.0833371 10.40625 7.84375 C 10.484374 7.6041709 10.617187 7.3645878 10.75 7.15625 C 10.882811 6.9453174 11.049478 6.7786509 11.25 6.625 C 11.453123 6.4713595 11.690102 6.3385471 11.96875 6.25 C 12.247393 6.161464 12.565101 6.1250057 12.9375 6.125 z M 12.0625 8.6875 C 11.940102 8.6875031 11.802081 8.7109406 11.6875 8.75 C 11.572915 8.7890655 11.473957 8.8359405 11.375 8.90625 C 11.27604 8.9765653 11.200519 9.0572944 11.125 9.15625 C 11.049478 9.2552109 10.98177 9.3802108 10.9375 9.5 L 10.9375 9.71875 C 10.937499 9.9687518 10.971353 10.210939 11.03125 10.40625 C 11.091144 10.59896 11.148436 10.742189 11.25 10.875 C 11.351561 11.007813 11.492186 11.117188 11.625 11.1875 C 11.75781 11.255209 11.885414 11.281251 12.03125 11.28125 C 12.200518 11.281251 12.369789 11.252605 12.5 11.1875 C 12.630205 11.122397 12.723955 11.052084 12.8125 10.9375 C 12.903643 10.822918 12.955726 10.690105 13 10.53125 C 13.046872 10.369793 13.093747 10.187502 13.09375 10 C 13.093747 9.8333353 13.072913 9.6562521 13.03125 9.5 C 12.98958 9.3411483 12.929684 9.2161484 12.84375 9.09375 C 12.757809 8.971357 12.630205 8.8541696 12.5 8.78125 C 12.369789 8.7083364 12.236977 8.6875031 12.0625 8.6875 z M 5 13.1875 L 5 17.1875 L 12 21 L 19 17.1875 L 19 13.1875 L 12 17 L 5 13.1875 z "
     id="path3075" />
</svg>
