<?xml version="1.0" encoding="UTF-8" standalone="no"?>
<svg
   xmlns:dc="http://purl.org/dc/elements/1.1/"
   xmlns:cc="http://creativecommons.org/ns#"
   xmlns:rdf="http://www.w3.org/1999/02/22-rdf-syntax-ns#"
   xmlns:svg="http://www.w3.org/2000/svg"
   xmlns="http://www.w3.org/2000/svg"
   xmlns:sodipodi="http://sodipodi.sourceforge.net/DTD/sodipodi-0.dtd"
   xmlns:inkscape="http://www.inkscape.org/namespaces/inkscape"
   fill="#000000"
   height="24"
   viewBox="0 0 24 24"
   width="24"
   id="svg3071"
   version="1.1"
   inkscape:version="0.48.4 r9939"
   sodipodi:docname="ic_word_8.svg">
  <metadata
     id="metadata3081">
    <rdf:RDF>
      <cc:Work
         rdf:about="">
        <dc:format>image/svg+xml</dc:format>
        <dc:type
           rdf:resource="http://purl.org/dc/dcmitype/StillImage" />
        <dc:title />
      </cc:Work>
    </rdf:RDF>
  </metadata>
  <defs
     id="defs3079" />
  <sodipodi:namedview
     pagecolor="#ffffff"
     bordercolor="#666666"
     borderopacity="1"
     objecttolerance="10"
     gridtolerance="10"
     guidetolerance="10"
     inkscape:pageopacity="0"
     inkscape:pageshadow="2"
     inkscape:window-width="1920"
     inkscape:window-height="1022"
     id="namedview3077"
     showgrid="false"
     showguides="true"
     inkscape:guide-bbox="true"
     inkscape:snap-object-midpoints="true"
     inkscape:snap-center="true"
     inkscape:zoom="34.75"
     inkscape:cx="10.206192"
     inkscape:cy="10.09219"
     inkscape:window-x="0"
     inkscape:window-y="29"
     inkscape:window-maximized="1"
     inkscape:current-layer="svg3071">
    <sodipodi:guide
       orientation="1,0"
       position="12,13.007194"
       id="guide3083" />
    <sodipodi:guide
       orientation="0,1"
       position="14.618705,14.992806"
       id="guide3085" />
  </sodipodi:namedview>
  <path
     d="M0 0h24v24H0z"
     fill="none"
     id="path3073" />
  <path
     d="M 12 3 L 1 9 L 12 15 L 21 10.09375 L 21 17 L 23 17 L 23 9 L 12 3 z M 12 6.09375 C 12.239581 6.0937558 12.450518 6.1171932 12.65625 6.1875 C 12.861976 6.2578181 13.036455 6.367193 13.1875 6.5 C 13.338538 6.6328177 13.476559 6.8046926 13.5625 7 C 13.648433 7.192713 13.687496 7.4088586 13.6875 7.65625 C 13.684892 7.9401081 13.588538 8.1848995 13.4375 8.40625 C 13.286455 8.6276074 13.096351 8.8125031 12.84375 8.9375 C 12.98958 9.0000029 13.132809 9.0625028 13.25 9.15625 C 13.369788 9.2473984 13.447913 9.3489608 13.53125 9.46875 C 13.617183 9.5885439 13.705725 9.7343771 13.75 9.875 C 13.796871 10.015627 13.812496 10.153648 13.8125 10.3125 C 13.812496 10.570314 13.7526 10.79948 13.65625 11 C 13.562496 11.200521 13.445309 11.36198 13.28125 11.5 C 13.119788 11.635417 12.937497 11.739583 12.71875 11.8125 C 12.499997 11.882812 12.249997 11.9375 12 11.9375 C 11.744789 11.9375 11.502602 11.882812 11.28125 11.8125 C 11.062498 11.742188 10.882811 11.635417 10.71875 11.5 C 10.557291 11.36198 10.437499 11.200521 10.34375 11 C 10.249999 10.79948 10.187499 10.572918 10.1875 10.3125 C 10.187499 10.153648 10.205728 10.015627 10.25 9.875 C 10.29427 9.731773 10.354166 9.5859398 10.4375 9.46875 C 10.520832 9.3489608 10.632811 9.2500026 10.75 9.15625 C 10.867186 9.0625028 11.010415 8.9687529 11.15625 8.90625 C 11.031248 8.843753 10.914061 8.7734406 10.8125 8.6875 C 10.710936 8.5989616 10.632811 8.5130242 10.5625 8.40625 C 10.492187 8.2968786 10.414062 8.1901078 10.375 8.0625 C 10.335937 7.9348998 10.312499 7.7968791 10.3125 7.65625 C 10.312499 7.4088586 10.354166 7.192713 10.4375 7 C 10.520832 6.8046926 10.635416 6.6328177 10.78125 6.5 C 10.929686 6.367193 11.109373 6.2578181 11.3125 6.1875 C 11.518227 6.1171932 11.75781 6.0937558 12 6.09375 z M 12 6.6875 C 11.859373 6.6875052 11.739581 6.7031301 11.625 6.75 C 11.510415 6.7942759 11.395831 6.8515675 11.3125 6.9375 C 11.229165 7.0234423 11.171873 7.1276089 11.125 7.25 C 11.080728 7.3697961 11.062498 7.5078168 11.0625 7.65625 C 11.062498 7.8046915 11.080728 7.9427122 11.125 8.0625 C 11.171873 8.1796912 11.229165 8.2890661 11.3125 8.375 C 11.398436 8.4583367 11.510415 8.5156283 11.625 8.5625 C 11.742185 8.6067741 11.859373 8.6250032 12 8.625 C 12.138018 8.6250032 12.25781 8.6067741 12.375 8.5625 C 12.492185 8.5156283 12.604164 8.4583367 12.6875 8.375 C 12.773434 8.2890661 12.828122 8.1822953 12.875 8.0625 C 12.921872 7.9427122 12.937497 7.8020874 12.9375 7.65625 C 12.937497 7.5130252 12.924476 7.3697961 12.875 7.25 C 12.828122 7.130213 12.773434 7.0546923 12.6875 6.96875 C 12.604164 6.8802133 12.492185 6.7968801 12.375 6.75 C 12.25781 6.700526 12.140622 6.6875052 12 6.6875 z M 12 9.21875 C 11.835935 9.2187526 11.69531 9.2604193 11.5625 9.3125 C 11.429686 9.3645858 11.312498 9.4348983 11.21875 9.53125 C 11.124998 9.6250022 11.052082 9.7421896 11 9.875 C 10.950519 10.007814 10.906249 10.153648 10.90625 10.3125 C 10.906249 10.476564 10.950519 10.619793 11 10.75 C 11.052082 10.877605 11.124998 10.973959 11.21875 11.0625 C 11.312498 11.151042 11.429686 11.234376 11.5625 11.28125 C 11.697914 11.328126 11.833331 11.343751 12 11.34375 C 12.158852 11.343751 12.304685 11.328126 12.4375 11.28125 C 12.570309 11.234376 12.687497 11.151042 12.78125 11.0625 C 12.877601 10.973959 12.947913 10.877605 13 10.75 C 13.054684 10.619793 13.093746 10.476564 13.09375 10.3125 C 13.093746 10.153648 13.054684 10.007814 13 9.875 C 12.947913 9.7421896 12.877601 9.6250022 12.78125 9.53125 C 12.684893 9.4348983 12.572914 9.3645858 12.4375 9.3125 C 12.304685 9.2604193 12.158852 9.2187526 12 9.21875 z M 5 13.1875 L 5 17.1875 L 12 21 L 19 17.1875 L 19 13.1875 L 12 17 L 5 13.1875 z "
     id="path3075" />
</svg>
