<?xml version="1.0" encoding="UTF-8" standalone="no"?>
<svg
   xmlns:dc="http://purl.org/dc/elements/1.1/"
   xmlns:cc="http://creativecommons.org/ns#"
   xmlns:rdf="http://www.w3.org/1999/02/22-rdf-syntax-ns#"
   xmlns:svg="http://www.w3.org/2000/svg"
   xmlns="http://www.w3.org/2000/svg"
   xmlns:sodipodi="http://sodipodi.sourceforge.net/DTD/sodipodi-0.dtd"
   xmlns:inkscape="http://www.inkscape.org/namespaces/inkscape"
   fill="#000000"
   height="24"
   viewBox="0 0 24 24"
   width="24"
   id="svg3071"
   version="1.1"
   inkscape:version="0.48.4 r9939"
   sodipodi:docname="ic_word_9.svg">
  <metadata
     id="metadata3081">
    <rdf:RDF>
      <cc:Work
         rdf:about="">
        <dc:format>image/svg+xml</dc:format>
        <dc:type
           rdf:resource="http://purl.org/dc/dcmitype/StillImage" />
        <dc:title />
      </cc:Work>
    </rdf:RDF>
  </metadata>
  <defs
     id="defs3079" />
  <sodipodi:namedview
     pagecolor="#ffffff"
     bordercolor="#666666"
     borderopacity="1"
     objecttolerance="10"
     gridtolerance="10"
     guidetolerance="10"
     inkscape:pageopacity="0"
     inkscape:pageshadow="2"
     inkscape:window-width="1920"
     inkscape:window-height="1022"
     id="namedview3077"
     showgrid="false"
     showguides="true"
     inkscape:guide-bbox="true"
     inkscape:snap-object-midpoints="true"
     inkscape:snap-center="true"
     inkscape:zoom="34.75"
     inkscape:cx="10.206192"
     inkscape:cy="10.09219"
     inkscape:window-x="0"
     inkscape:window-y="29"
     inkscape:window-maximized="1"
     inkscape:current-layer="svg3071">
    <sodipodi:guide
       orientation="1,0"
       position="12,13.007194"
       id="guide3083" />
    <sodipodi:guide
       orientation="0,1"
       position="14.618705,14.992806"
       id="guide3085" />
  </sodipodi:namedview>
  <path
     d="M0 0h24v24H0z"
     fill="none"
     id="path3073" />
  <path
     d="M 12 3 L 1 9 L 12 15 L 21 10.09375 L 21 17 L 23 17 L 23 9 L 12 3 z M 11.96875 6.125 C 12.187497 6.1250058 12.388018 6.1562557 12.5625 6.21875 C 12.73958 6.2786514 12.898434 6.3593805 13.03125 6.46875 C 13.166663 6.5755261 13.278642 6.6953177 13.375 6.84375 C 13.47135 6.9895882 13.5651 7.1718797 13.625 7.34375 C 13.687496 7.5130252 13.72135 7.6875042 13.75 7.875 C 13.778642 8.0598997 13.781246 8.2500037 13.78125 8.4375 L 13.78125 8.6875 C 13.781246 8.9296905 13.773433 9.1822944 13.75 9.4375 C 13.726558 9.6901064 13.695308 9.9192728 13.625 10.15625 C 13.557288 10.393231 13.437496 10.632814 13.3125 10.84375 C 13.187496 11.052084 13.044267 11.218751 12.84375 11.375 C 12.643226 11.53125 12.380206 11.658854 12.09375 11.75 C 11.807289 11.841146 11.486977 11.90625 11.09375 11.90625 L 11 11.90625 L 11 11.25 L 11.09375 11.25 C 11.351561 11.250001 11.554686 11.231771 11.75 11.1875 C 11.94531 11.140626 12.138018 11.083334 12.28125 11 C 12.427081 10.916668 12.528643 10.79948 12.625 10.6875 C 12.721351 10.572918 12.815101 10.447918 12.875 10.3125 C 12.937497 10.174481 12.971351 10.026044 13 9.875 C 13.028642 9.7213563 13.054684 9.5651065 13.0625 9.40625 C 12.999997 9.4843774 12.924476 9.5546898 12.84375 9.625 C 12.763018 9.6927105 12.664059 9.7604188 12.5625 9.8125 C 12.460935 9.8645854 12.374997 9.906252 12.25 9.9375 C 12.127602 9.9661477 11.989581 10.000002 11.84375 10 C 11.562498 10.000002 11.299477 9.921877 11.09375 9.8125 C 10.890624 9.700523 10.726561 9.5546898 10.59375 9.375 C 10.460937 9.1953152 10.374999 9.0078154 10.3125 8.78125 C 10.249999 8.5546908 10.218749 8.3229202 10.21875 8.09375 C 10.218749 7.8255249 10.239583 7.5807335 10.3125 7.34375 C 10.38802 7.1041715 10.510416 6.8958383 10.65625 6.71875 C 10.804686 6.5390679 10.968749 6.3854222 11.1875 6.28125 C 11.408852 6.1744849 11.677081 6.1250058 11.96875 6.125 z M 11.96875 6.71875 C 11.799477 6.7187552 11.661456 6.7447968 11.53125 6.8125 C 11.40104 6.8802133 11.278644 6.9739632 11.1875 7.09375 C 11.098957 7.2109422 11.046874 7.367192 11 7.53125 C 10.953124 7.6927125 10.937499 7.875004 10.9375 8.0625 C 10.937499 8.2291703 10.958332 8.3697952 11 8.53125 C 11.041665 8.6901074 11.104165 8.843753 11.1875 8.96875 C 11.273436 9.0937528 11.372394 9.2031277 11.5 9.28125 C 11.630206 9.3567734 11.763019 9.3750025 11.9375 9.375 C 12.059893 9.3750025 12.197914 9.382815 12.3125 9.34375 C 12.429685 9.3020859 12.528643 9.2291693 12.625 9.15625 C 12.723955 9.080732 12.799476 9.0052112 12.875 8.90625 C 12.953122 8.8046906 13.018226 8.684899 13.0625 8.5625 L 13.0625 8.3125 C 13.062497 8.0598996 13.028642 7.8541707 12.96875 7.65625 C 12.911455 7.4583378 12.851559 7.2916713 12.75 7.15625 C 12.651039 7.018234 12.53906 6.9166716 12.40625 6.84375 C 12.276039 6.7708385 12.117185 6.7187552 11.96875 6.71875 z M 5 13.1875 L 5 17.1875 L 12 21 L 19 17.1875 L 19 13.1875 L 12 17 L 5 13.1875 z "
     id="path3075" />
</svg>
