<?xml version="1.0" encoding="UTF-8" standalone="no"?>
<svg
   xmlns:dc="http://purl.org/dc/elements/1.1/"
   xmlns:cc="http://creativecommons.org/ns#"
   xmlns:rdf="http://www.w3.org/1999/02/22-rdf-syntax-ns#"
   xmlns:svg="http://www.w3.org/2000/svg"
   xmlns="http://www.w3.org/2000/svg"
   xmlns:sodipodi="http://sodipodi.sourceforge.net/DTD/sodipodi-0.dtd"
   xmlns:inkscape="http://www.inkscape.org/namespaces/inkscape"
   fill="#000000"
   height="24"
   viewBox="0 0 24 24"
   width="24"
   id="svg3071"
   version="1.1"
   inkscape:version="0.48.4 r9939"
   sodipodi:docname="ic_word_3.svg">
  <metadata
     id="metadata3081">
    <rdf:RDF>
      <cc:Work
         rdf:about="">
        <dc:format>image/svg+xml</dc:format>
        <dc:type
           rdf:resource="http://purl.org/dc/dcmitype/StillImage" />
        <dc:title />
      </cc:Work>
    </rdf:RDF>
  </metadata>
  <defs
     id="defs3079" />
  <sodipodi:namedview
     pagecolor="#ffffff"
     bordercolor="#666666"
     borderopacity="1"
     objecttolerance="10"
     gridtolerance="10"
     guidetolerance="10"
     inkscape:pageopacity="0"
     inkscape:pageshadow="2"
     inkscape:window-width="1920"
     inkscape:window-height="1022"
     id="namedview3077"
     showgrid="false"
     showguides="true"
     inkscape:guide-bbox="true"
     inkscape:snap-object-midpoints="true"
     inkscape:snap-center="true"
     inkscape:zoom="34.75"
     inkscape:cx="10.206192"
     inkscape:cy="10.09219"
     inkscape:window-x="0"
     inkscape:window-y="29"
     inkscape:window-maximized="1"
     inkscape:current-layer="svg3071">
    <sodipodi:guide
       orientation="1,0"
       position="12,13.007194"
       id="guide3083" />
    <sodipodi:guide
       orientation="0,1"
       position="14.618705,14.992806"
       id="guide3085" />
  </sodipodi:namedview>
  <path
     d="M0 0h24v24H0z"
     fill="none"
     id="path3073" />
  <path
     d="M 12 3 L 1 9 L 12 15 L 21 10.09375 L 21 17 L 23 17 L 23 9 L 12 3 z M 11.8125 6.09375 C 12.067706 6.0937558 12.32031 6.1171932 12.53125 6.1875 C 12.742184 6.2552139 12.911455 6.3645888 13.0625 6.5 C 13.213538 6.6354219 13.322913 6.7994842 13.40625 7 C 13.489579 7.2005255 13.531246 7.4244836 13.53125 7.6875 C 13.531246 7.796879 13.53385 7.9140664 13.5 8.03125 C 13.466142 8.1484412 13.414059 8.2630244 13.34375 8.375 C 13.273434 8.4843784 13.174476 8.5885449 13.0625 8.6875 C 12.953122 8.7838572 12.809893 8.8723988 12.65625 8.9375 C 12.841143 8.9973987 13.002601 9.0598986 13.125 9.15625 C 13.249996 9.2526068 13.36458 9.3802108 13.4375 9.5 C 13.513017 9.6197939 13.53385 9.7421896 13.5625 9.875 C 13.593746 10.007814 13.624996 10.119793 13.625 10.25 C 13.624996 10.515626 13.591142 10.763022 13.5 10.96875 C 13.40885 11.17448 13.286455 11.356771 13.125 11.5 C 12.963538 11.640625 12.752601 11.736979 12.53125 11.8125 C 12.312497 11.885417 12.067706 11.9375 11.8125 11.9375 C 11.562498 11.9375 11.346352 11.882812 11.125 11.8125 C 10.906249 11.742188 10.723957 11.635417 10.5625 11.5 C 10.401041 11.364584 10.252604 11.226563 10.15625 11.03125 C 10.0625 10.835939 10.03125 10.593751 10.03125 10.34375 L 10.75 10.34375 C 10.749999 10.492189 10.76302 10.627605 10.8125 10.75 C 10.864582 10.872397 10.937499 10.976563 11.03125 11.0625 C 11.124999 11.148438 11.242186 11.234376 11.375 11.28125 C 11.510415 11.328126 11.648435 11.343751 11.8125 11.34375 C 11.97656 11.343751 12.148435 11.322917 12.28125 11.28125 C 12.41406 11.23698 12.531247 11.151042 12.625 11.0625 C 12.718747 10.973959 12.763018 10.880209 12.8125 10.75 C 12.86458 10.617189 12.906247 10.460939 12.90625 10.28125 C 12.906247 10.104168 12.872393 9.9401061 12.8125 9.8125 C 12.755205 9.6822938 12.669268 9.5859398 12.5625 9.5 C 12.458331 9.4140649 12.338539 9.3541692 12.1875 9.3125 C 12.03906 9.2708359 11.867185 9.2500026 11.6875 9.25 L 11.1875 9.25 L 11.1875 8.65625 L 11.6875 8.65625 C 11.869789 8.6562532 12.049477 8.6432324 12.1875 8.59375 C 12.328122 8.5442741 12.437497 8.4609409 12.53125 8.375 C 12.627601 8.2890661 12.700518 8.1822953 12.75 8.0625 C 12.799476 7.9427122 12.812497 7.8307332 12.8125 7.6875 C 12.812497 7.3567753 12.731768 7.1041714 12.5625 6.9375 C 12.393226 6.7682343 12.138018 6.6875052 11.8125 6.6875 C 11.658852 6.6875052 11.533852 6.7031301 11.40625 6.75 C 11.281248 6.7942759 11.153644 6.8515675 11.0625 6.9375 C 10.973957 7.0234423 10.924478 7.1302131 10.875 7.25 C 10.82552 7.3697961 10.781249 7.5078168 10.78125 7.65625 L 10.0625 7.65625 C 10.0625 7.4401086 10.104166 7.2213588 10.1875 7.03125 C 10.273437 6.8385467 10.408853 6.6718802 10.5625 6.53125 C 10.716145 6.3880263 10.880207 6.2994847 11.09375 6.21875 C 11.309894 6.1354224 11.549477 6.0937558 11.8125 6.09375 z M 5 13.1875 L 5 17.1875 L 12 21 L 19 17.1875 L 19 13.1875 L 12 17 L 5 13.1875 z "
     id="path3075" />
</svg>
